# xmcd
#
# Track frame offsets:
# 150
# 23104
# 46009
# 68331
# 89292
# 107699
# 147451
# 169003
# 186638
# 215696
# 239892
#
# Disc length: 3467 seconds
#
#
# Revision: 0
# Processed by: cddbd v1.5.1PL0 Copyright (c) Steve Scherf et al.
# Submitted via: FreeRIP 2.942 
#
DISCID=9d0d890b
DTITLE=Various Artist - A Twist Of Jobim
DYEAR=1997
DGENRE=Jazz
TTITLE0=Lee Ritenour and Dave Grusin - Water To Drink (Agua De Beber)
TTITLE1=Eric Marienthal, Dave Grusin and Lee Ritenour - Captain Bacardi
TTITLE2=El DeBarge and Art Porter - Dindi
TTITLE3=Al Jarreau and Oleta Adams - Waters Of March
TTITLE4=Dave Grusin - Bonita
TTITLE5=Herbie Hancock, Paulinho Da Costa and Steve Tavglione - Stone Flower
TTITLE6=Lee Ritenour and Eric Marienthal - Favela
TTITLE7=Alan Pasqua and Ernie Watts - Children's Games
TTITLE8=Ernie Watts and Christian McBride - Lamento
TTITLE9=The Yellowjackets and Lee Ritenour - Mojave
TTITLE10=Al Jarreau and Oleta Adams - Girl From Ipanema
EXTD=
EXTT0=
EXTT1=
EXTT2=
EXTT3=
EXTT4=
EXTT5=
EXTT6=
EXTT7=
EXTT8=
EXTT9=
EXTT10=
PLAYORDER=
